<svg width="65" height="65" viewBox="0 0 65 65" fill="none" xmlns="http://www.w3.org/2000/svg">
<g clip-path="url(#clip0_2_4)">
<path d="M64.2462 32.6064C64.2462 41.126 60.8618 49.2966 54.8375 55.3209C48.8133 61.3451 40.6426 64.7295 32.1231 64.7295C23.6035 64.7295 15.4329 61.3451 9.40863 55.3209C3.38439 49.2966 3.54982e-07 41.126 0 32.6064C2.12989e-07 24.0868 3.38439 15.9162 9.40863 9.89196C15.4329 3.86772 23.6035 0.483334 32.1231 0.483334C40.6426 0.483334 48.8133 3.86772 54.8375 9.89196C60.8618 15.9162 64.2462 24.0868 64.2462 32.6064Z" fill="black"/>
<path d="M13.232 15.7165L21.9622 24.0705H26.9831V28.2665L37.0216 37.3482V24.0705H53.3859L51.2034 21.9821H41.8055L41.5652 21.7522H50.9631L49.1408 20.0085H39.0206L38.7805 19.7786H48.9007L47.0783 18.0347H43.2411L43.0011 17.8051H46.8384L44.6557 15.7165L13.232 15.7165ZM26.9831 32.4435V46.7886L37.0216 55.8703V41.5252L26.9831 32.4435Z" fill="white"/>
</g>
<defs>
<clipPath id="clip0_2_4">
<rect width="65" height="65" fill="white"/>
</clipPath>
</defs>
</svg>
